<svg xmlns="http://www.w3.org/2000/svg" width="110" height="110" viewBox="0 0 110 110">
  <g id="g8" transform="translate(-16.751 183.119)">
    <g id="g10" transform="translate(16.751 -183.118)">
      <path id="path12" d="M126.751-127.844a56.031,56.031,0,0,0-.424-6.875,54.962,54.962,0,0,0-1.4-7.27c-6.567-22.96-29.62-40.278-53.632-41.129-2.211.078-4.678.256-7.122.588s-4.728.763-6.537,1.1a55,55,0,0,0-32.955,23.368,50.212,50.212,0,0,0-2.975,5.586c-8.365,20.237-6.444,44.61,8.158,61.029a58.536,58.536,0,0,0,4.13,4.259,57.476,57.476,0,0,0,12.7,9.01A42.749,42.749,0,0,0,51.83-76c19.139,5.972,40.911,2.765,56.66-10.584a72.221,72.221,0,0,0,5.207-5.075c7.2-8.457,11.976-18.983,12.887-29.455.047-1.822.167-4.192.166-6.73" transform="translate(-16.751 183.118)" fill="#fff"/>
      <path id="path14" d="M139.267-79.282a4.536,4.536,0,0,1-4.111,4.9l-4.212.369a49.385,49.385,0,0,0-6.881,1.055c-1.306.364-1.662.048-.792-.7s1.42-3.207,1.224-5.459a4.345,4.345,0,0,1,4.145-4.49l5.665-.5a4.538,4.538,0,0,1,4.9,4.114l.062.711" transform="translate(-52.735 149.642)" fill="#3a3535"/>
      <path id="path16" d="M61.958-130.12a8.658,8.658,0,0,0,1.992-.847,6.4,6.4,0,0,0,1.628-1.356,6.385,6.385,0,0,0,1.137-1.955c.034,0,.065-.085.09-.243s.052-.341.075-.542.036-.387.046-.551.011-.259.009-.275a2.355,2.355,0,0,0-.38-1.394,3.669,3.669,0,0,0-1.075-1.046,6.8,6.8,0,0,0-1.506-.726,11.469,11.469,0,0,0-1.689-.447,13.319,13.319,0,0,0-1.633-.206,8.175,8.175,0,0,0-1.355.012c-.182.019-.387.054-.585.09l2.137,9.75c.375-.073.743-.159,1.11-.264" transform="translate(-30.989 168.445)" fill="#3a3535"/>
      <path id="path18" d="M54.466-121.593a8.738,8.738,0,0,0,1.062-.046,2.8,2.8,0,0,0,2.221-1.055,4.113,4.113,0,0,0,.366-2.577c-.026-.258-.074-.578-.14-.963s-.136-.78-.216-1.187-.149-.8-.215-1.188c-.017-.1-.031-.174-.044-.261-.125-.652-1.4-7.243-1.917-10.423-.115.03-.219.049-.338.082a6.661,6.661,0,0,0-1.784.76,4.162,4.162,0,0,0-1.313,1.242,2.288,2.288,0,0,0-.281,1.789c.015.153.046.438.088.849.042.4.084.812.121,1.25s.076.865.121,1.277c.04.4.068.671.084.824q.111,1.029.22,2.206t.253,2.379q.136,1.209.328,2.386a21.09,21.09,0,0,0,.45,2.168,1.258,1.258,0,0,0,.936.487" transform="translate(-28.645 168.301)" fill="#3a3535"/>
      <path id="path20" d="M73.168-124.365a2.022,2.022,0,0,0,.629.544,2.512,2.512,0,0,0,.823.279,3.428,3.428,0,0,0,.864.026,3.156,3.156,0,0,0,2.092-.9,3.969,3.969,0,0,0,.918-1.8,7.98,7.98,0,0,0,.17-2.231c-.048-.784-.109-1.512-.179-2.182-.036-.361-.095-.91-.173-1.648s-.186-1.547-.322-2.425-.316-1.788-.543-2.719a14.911,14.911,0,0,0-.838-2.5,5.748,5.748,0,0,0-1.189-1.789,1.93,1.93,0,0,0-1.625-.582,2.177,2.177,0,0,0-1,.365,3.4,3.4,0,0,0-.808.761,3.16,3.16,0,0,0-.5.991,2.651,2.651,0,0,0-.108,1.079l1.482,13.878a1.709,1.709,0,0,0,.312.854" transform="translate(-35.28 169.321)" fill="#3a3535"/>
      <path id="path22" d="M82.984-126.993c.011.122.031.25.054.385s.038.266.051.386.022.207.026.258q.446.265.776.44a2.681,2.681,0,0,0,.652.243,3.284,3.284,0,0,0,.644.076,6.692,6.692,0,0,0,.738-.039,1.608,1.608,0,0,0,1.159-.6,3.2,3.2,0,0,0,.591-1.325,8.777,8.777,0,0,0,.189-1.791c.009-.66-.011-1.31-.061-1.959s-.114-1.259-.182-1.843a14.011,14.011,0,0,1-.114-1.471,4.977,4.977,0,0,1,.989,1.016c.362.465.738.988,1.131,1.575s.8,1.186,1.22,1.811a17.051,17.051,0,0,0,1.283,1.686,7.689,7.689,0,0,0,1.3,1.218,1.84,1.84,0,0,0,1.268.4,3.127,3.127,0,0,0,1.676-.634,3.647,3.647,0,0,0,1.02-1.331,6,6,0,0,0,.487-1.8,15.87,15.87,0,0,0,.112-2.029c0-.694-.038-1.374-.109-2.046s-.14-1.3-.2-1.855c-.013-.137-.04-.338-.075-.6s-.056-.406-.056-.423a4.3,4.3,0,0,1-.187-.671q-.121-.521-.286-1.219c-.112-.468-.222-.958-.337-1.475s-.232-1.009-.352-1.475-.228-.866-.322-1.2-.17-.556-.212-.656a5.021,5.021,0,0,0-.391-.4,4.881,4.881,0,0,0-.626-.494,4.161,4.161,0,0,0-.732-.393,1.054,1.054,0,0,0-.685-.07,1.574,1.574,0,0,0-1.007.81,4.815,4.815,0,0,0-.5,1.522,10.525,10.525,0,0,0-.148,1.944c0,.7.033,1.385.085,2.047s.108,1.269.164,1.82.1.977.136,1.286l-.3.344c-.193-.36-.445-.83-.747-1.4s-.657-1.181-1.062-1.818-.849-1.263-1.333-1.89a14.423,14.423,0,0,0-1.5-1.677,6.866,6.866,0,0,0-1.62-1.16,3,3,0,0,0-1.662-.332,2.034,2.034,0,0,0-.769.252,2.779,2.779,0,0,0-.675.513,3.244,3.244,0,0,0-.5.678,2.293,2.293,0,0,0-.27.769q.234,1.722.388,3.554t.292,3.678c.1,1.232.186,2.453.271,3.656s.182,2.36.3,3.46c.007.05.015.137.028.256" transform="translate(-38.793 170.344)" fill="#3a3535"/>
      <path id="path24" d="M116.9-131.84a12.625,12.625,0,0,0-1.261-1.115c-.454-.355-.9-.7-1.333-1.047s-.837-.694-1.207-1.044a4.236,4.236,0,0,1-.843-1.1c.431-.515.893-1.054,1.38-1.617a20.291,20.291,0,0,0,1.343-1.728,9.662,9.662,0,0,0,.981-1.8,3.771,3.771,0,0,0,.276-1.839,1.832,1.832,0,0,0-.723-1.434,2.4,2.4,0,0,0-1.594-.3,2.961,2.961,0,0,0-1.223.377,3.8,3.8,0,0,0-.9.746,8.325,8.325,0,0,0-.765,1.017c-.244.381-.52.78-.825,1.194l-.642.067q-.108-.77-.185-1.517a5.172,5.172,0,0,0-.311-1.347,1.918,1.918,0,0,0-.693-.891,1.99,1.99,0,0,0-1.339-.224c-.156.016-.333.044-.539.084a2.573,2.573,0,0,0-.566.175,1.105,1.105,0,0,0-.432.345.764.764,0,0,0-.137.561l1.71,16.249a1.882,1.882,0,0,0,.7,1.372,1.932,1.932,0,0,0,1.433.385,1.648,1.648,0,0,0,1.178-.54,2.224,2.224,0,0,0,.446-1.09,5.228,5.228,0,0,0,0-1.38q-.093-.745-.136-1.417a4.308,4.308,0,0,1,1.6.807c.491.393.98.78,1.46,1.162a10.61,10.61,0,0,0,1.487.99,2.783,2.783,0,0,0,1.661.32,1.693,1.693,0,0,0,1.195-.518,1.691,1.691,0,0,0,.256-1.276,3.292,3.292,0,0,0-.473-1.4,6.656,6.656,0,0,0-.976-1.238" transform="translate(-46.819 170.386)" fill="#3a3535"/>
      <path id="path26" d="M57.078-99.016a6.667,6.667,0,0,0,1.308,1.048c.483.3.989.582,1.522.856s1.061.559,1.587.861a11.364,11.364,0,0,1,1.529,1.05,20.043,20.043,0,0,1-2.247.314q-1.1.091-1.962.247a4.723,4.723,0,0,0-1.413.447.981.981,0,0,0-.557.89l.23.941a2.113,2.113,0,0,0,.8.9,3.963,3.963,0,0,0,1.146.492,5.833,5.833,0,0,0,1.282.178,8.373,8.373,0,0,0,1.206-.037,7.472,7.472,0,0,0,2.13-.523,4.866,4.866,0,0,0,1.647-1.085,4.244,4.244,0,0,0,.989-1.612,4.933,4.933,0,0,0,.194-2.116,2.592,2.592,0,0,0-.587-1.372A7.246,7.246,0,0,0,64.647-98.7a13.008,13.008,0,0,0-1.537-1.01c-.546-.309-1.053-.6-1.524-.881a11.079,11.079,0,0,1-1.192-.8,1.542,1.542,0,0,1-.611-.855c-.022-.032.031-.038-.022-.2A1.86,1.86,0,0,1,59.69-103a.35.35,0,0,1,.315-.371,2.117,2.117,0,0,1,.9-.9,3.917,3.917,0,0,1,1.234-.391,9.778,9.778,0,0,1,1.37-.092c.471,0,.9,0,1.3-.007a3.793,3.793,0,0,0,.715-.633.983.983,0,0,0,.134-.7,3.252,3.252,0,0,0-.391-1.262,3.643,3.643,0,0,0-.8-.971,3.077,3.077,0,0,0-1.089-.6,3.105,3.105,0,0,0-1.264-.128,10.278,10.278,0,0,0-2.616.627,7.082,7.082,0,0,0-2.18,1.309,5.5,5.5,0,0,0-1.419,1.984,5.326,5.326,0,0,0-.332,2.653,6.223,6.223,0,0,0,.527,2.041,5.414,5.414,0,0,0,.983,1.432" transform="translate(-29.91 158.087)" fill="#3a3535"/>
      <path id="path28" d="M77.246-92.487a2.478,2.478,0,0,0,.562-1.242,7.281,7.281,0,0,0,.065-1.594,9.781,9.781,0,0,1,.035-1.646,2.961,2.961,0,0,1,.45-1.323,1.664,1.664,0,0,1,1.309-.645l.979-.1a.4.4,0,0,1,.191.07c.09.053.184.1.278.154a2.5,2.5,0,0,1,.251.157c.074.053.112.088.115.1l.439,4.172a.708.708,0,0,0,.329.552,1.946,1.946,0,0,0,.681.267,3.9,3.9,0,0,0,.787.073c.269,0,.481-.012.635-.028a3.035,3.035,0,0,0,1.52-.537,3.1,3.1,0,0,0,.926-1.1,4.817,4.817,0,0,0,.455-1.478,10.326,10.326,0,0,0,.111-1.666c-.007-.561-.036-1.109-.094-1.642-.059-.55-.109-1.04-.155-1.469-.073-.7-.135-1.446-.182-2.233s-.124-1.558-.23-2.32a14.856,14.856,0,0,0-.463-2.164,5.25,5.25,0,0,0-.89-1.768,3.548,3.548,0,0,0-1.511-1.117,4.855,4.855,0,0,0-2.314-.226.942.942,0,0,0-.737.534,3.083,3.083,0,0,0-.362.912c.017.136.044.366.086.692s.085.677.124,1.054.072.736.1,1.071.048.574.064.711a6.94,6.94,0,0,1-.027.886,4.075,4.075,0,0,1-.18.893,1.884,1.884,0,0,1-.407.707,1.081,1.081,0,0,1-.706.333,1.325,1.325,0,0,1-.8-.176,1.544,1.544,0,0,1-.626-.741c-.009-.416-.032-.883-.067-1.4a12.315,12.315,0,0,0-.216-1.552,9.966,9.966,0,0,0-.431-1.505,4.4,4.4,0,0,0-.718-1.266,2.891,2.891,0,0,0-1.116-.82,3.193,3.193,0,0,0-1.594-.183,2.033,2.033,0,0,0-1.224.505,2.706,2.706,0,0,0-.684,1.049,5.067,5.067,0,0,0-.3,1.4,13.115,13.115,0,0,0-.036,1.528c.019.5.054.979.112,1.432s.1.836.134,1.147c.026.257.075.668.141,1.232s.15,1.22.246,1.956.193,1.506.3,2.312.2,1.576.3,2.311.182,1.392.257,1.964.138.98.179,1.22a.651.651,0,0,0,.363.6,3.108,3.108,0,0,0,.816.316,5.666,5.666,0,0,0,.821.131c.254.019.391.026.407.024a1.91,1.91,0,0,0,1.505-.523" transform="translate(-35.385 158.833)" fill="#3a3535"/>
      <path id="path30" d="M101.133-105.759c-.136-.881-.316-1.785-.546-2.717a14.381,14.381,0,0,0-.839-2.5,5.7,5.7,0,0,0-1.188-1.789,1.941,1.941,0,0,0-1.625-.585,2.2,2.2,0,0,0-1,.367,3.32,3.32,0,0,0-.807.761,3.152,3.152,0,0,0-.509.991,2.693,2.693,0,0,0-.106,1.078L96-96.276a1.655,1.655,0,0,0,.309.853,2.038,2.038,0,0,0,.63.546,2.468,2.468,0,0,0,.823.279,3.458,3.458,0,0,0,.862.026,3.167,3.167,0,0,0,2.095-.9,3.982,3.982,0,0,0,.918-1.8,7.968,7.968,0,0,0,.165-2.23c-.045-.785-.1-1.513-.174-2.183-.037-.359-.1-.91-.173-1.647s-.184-1.548-.321-2.428" transform="translate(-43.133 159.536)" fill="#3a3535"/>
      <path id="path32" d="M107.412-113.848a4.694,4.694,0,0,0-1.3.84,2.313,2.313,0,0,0-.714,1.261q.124,1.443.243,3.295t.225,3.764q.111,1.916.237,3.751t.28,3.277a1.949,1.949,0,0,0,.442,1.113,2.306,2.306,0,0,0,.9.621,3.827,3.827,0,0,0,1.159.243,7.209,7.209,0,0,0,1.195-.023,1.129,1.129,0,0,0,.847-.491,2.807,2.807,0,0,0,.433-1.087,8.421,8.421,0,0,0,.134-1.447c0-.528-.007-1.044-.032-1.544s-.057-.96-.094-1.384c-.013-.156-.024-.295-.029-.424-.657-2.979-2.187-10.022-2.519-12.216a7.723,7.723,0,0,0-1.4.453" transform="translate(-46.83 159.853)" fill="#3a3535"/>
      <path id="path34" d="M121.966-99.745c-.045-.1-.076-.14-.09-.121-.022-.033-.066-.093-.138-.181s-.143-.181-.221-.278-.154-.181-.222-.262a1.708,1.708,0,0,0-.163-.166,5.352,5.352,0,0,1-.455-.472c-.222-.254-.489-.555-.794-.906s-.627-.72-.964-1.108-.656-.757-.962-1.1-.574-.631-.808-.877-.389-.4-.465-.459c.486-.346.918-.674,1.3-.982a4.8,4.8,0,0,0,.958-1.039,3.721,3.721,0,0,0,.538-1.319,5.679,5.679,0,0,0,.015-1.826,3.708,3.708,0,0,0-.836-2.007,4.833,4.833,0,0,0-1.68-1.256,7.245,7.245,0,0,0-2.16-.593,10.134,10.134,0,0,0-2.266-.023c-.187.021-.391.048-.607.083l2.427,12.231c.039.032.081.06.122.1a7.559,7.559,0,0,1,.944,1.06q.471.627.951,1.344a14.443,14.443,0,0,0,.967,1.3,5.811,5.811,0,0,0,1,.963,1.43,1.43,0,0,0,1.023.321,4.994,4.994,0,0,0,1.444-.372,3.009,3.009,0,0,0,1.183-.894.529.529,0,0,0,.145-.379,1.557,1.557,0,0,0-.061-.436,2.389,2.389,0,0,0-.128-.351" transform="translate(-49.055 160.011)" fill="#3a3535"/>
      <path id="path36" d="M139.445-115.323a3.45,3.45,0,0,0-1.282-.92,5.927,5.927,0,0,0-1.686-.422,14.676,14.676,0,0,0-1.842-.081,17.409,17.409,0,0,0-1.758.122q-.838.1-1.431.162c-.138.013-.384.039-.743.078s-.713.079-1.107.129-.774.093-1.134.133-.584.06-.721.075a2.432,2.432,0,0,0-.818.5,2.522,2.522,0,0,0-.55.735,2.96,2.96,0,0,0-.273.861,3.6,3.6,0,0,0-.02.913,1.48,1.48,0,0,0,.454,1.007,2.087,2.087,0,0,0,.949.461,4.925,4.925,0,0,0,1.169.111c.408-.007.793-.009,1.159,0a3.962,3.962,0,0,1,.907.1.454.454,0,0,1,.395.4L132.3-99.7a1.688,1.688,0,0,0,.214.669,2.138,2.138,0,0,0,.421.527,1.9,1.9,0,0,0,.53.349,1.094,1.094,0,0,0,.572.1,3.078,3.078,0,0,0,1.088-.27,1.284,1.284,0,0,0,.555-.54,3.237,3.237,0,0,0,.293-.839c.069-.326.166-.716.292-1.163-.011-.12-.034-.328-.065-.618-.033-.308-.068-.661-.111-1.056s-.084-.806-.129-1.236c-.048-.447-.092-.866-.133-1.263s-.074-.746-.1-1.057-.043-.525-.055-.644c-.018-.171-.041-.516-.07-1.035s-.055-1.049-.078-1.592-.04-1.038-.05-1.481a4.444,4.444,0,0,1,0-.689l.276-.341q.436-.07,1.2-.125a8.534,8.534,0,0,0,1.472-.233,3.806,3.806,0,0,0,1.209-.52.975.975,0,0,0,.431-.98,2.786,2.786,0,0,0-.621-1.576" transform="translate(-53.843 160.68)" fill="#3a3535"/>
      <path id="path38" d="M71.682-75.62a7.944,7.944,0,0,0-2.848-1.823,7.687,7.687,0,0,0-3.278-.433l2.36,17.6a4.917,4.917,0,0,0,1.158-.508,11.182,11.182,0,0,0,2.935-2.079,9.433,9.433,0,0,0,2.01-2.906,6.627,6.627,0,0,0,.537-3.443,11.759,11.759,0,0,0-.932-3.548,9.269,9.269,0,0,0-1.942-2.865" transform="translate(-33.312 147.544)" fill="#f469bb"/>
      <path id="path40" d="M62.483-77.792c-.307.042-.673.109-1.1.2a7.469,7.469,0,0,0-1.536.513,3.771,3.771,0,0,0-1.222.87,1.516,1.516,0,0,0-.384,1.3c.018.151.041.428.073.824s.068.814.107,1.253.075.855.119,1.251c.039.377.065.642.084.8.025.257.063.61.109,1.055s.1.89.152,1.325.106.827.148,1.17.073.541.076.591.059.283.154.7.209.894.344,1.435.271,1.087.407,1.637.247.985.331,1.307c.039.2.08.421.122.651a3.684,3.684,0,0,0,.171.635,1.193,1.193,0,0,0,.324.485.809.809,0,0,0,.6.184l.232-.024c.153-.016.322-.029.5-.04s.366-.024.554-.046l.438-.046c.249-.026.5-.067.747-.113-.325-3.367-1.524-15.934-1.555-17.92" transform="translate(-30.822 147.509)" fill="#f469bb"/>
      <path id="path42" d="M93.966-65.688c-.016-.172-.031-.291-.035-.361a14.489,14.489,0,0,0-.285-1.572c-.143-.652-.335-1.37-.565-2.152s-.5-1.614-.807-2.493-.646-1.743-1-2.59a24.975,24.975,0,0,0-1.163-2.4,15.243,15.243,0,0,0-1.29-1.986,6.18,6.18,0,0,0-1.35-1.33,2.03,2.03,0,0,0-1.382-.4,3,3,0,0,0-1.993,1.121,9.336,9.336,0,0,0-1.49,2.528,19.438,19.438,0,0,0-1.04,3.377q-.4,1.849-.62,3.657t-.255,3.385a20.247,20.247,0,0,0,.058,2.533c.007.051.015.154.034.309.012.137.034.287.06.45s.046.32.063.475c.013.138.025.232.027.284a1.246,1.246,0,0,0,.15.152,2.066,2.066,0,0,0,.171.15,4.074,4.074,0,0,0,.451.2c.191.076.381.151.569.228s.364.143.515.205a1.493,1.493,0,0,0,.26.091,2.218,2.218,0,0,0,1.279-.2,2.309,2.309,0,0,0,.845-.765,3.538,3.538,0,0,0,.478-1.145,9.481,9.481,0,0,0,.211-1.338c.039-.455.056-.894.055-1.32s-.008-.782-.021-1.077a1.511,1.511,0,0,1,.423-.318,1.377,1.377,0,0,1,.443-.113,1.344,1.344,0,0,1,1.068.4,4.247,4.247,0,0,1,.81,1.125c.239.462.47.963.692,1.5a12.967,12.967,0,0,0,.714,1.487,4.332,4.332,0,0,0,.872,1.107,1.479,1.479,0,0,0,1.183.358,1.816,1.816,0,0,0,1.339-.649,4.231,4.231,0,0,0,.653-1.46c-.007-.053-.017-.163-.036-.336s-.033-.356-.046-.554-.026-.383-.046-.556" transform="translate(-38.443 148.591)" fill="#f469bb"/>
      <path id="path44" d="M112.683-82.47a1.992,1.992,0,0,0-.622-.468,1.384,1.384,0,0,0-.771-.126,2.259,2.259,0,0,0-1.65.9,6.128,6.128,0,0,0-.925,1.843,19.3,19.3,0,0,0-.553,2.168,11.351,11.351,0,0,1-.527,1.9l-.311.034c-.077-.1-.244-.279-.485-.549s-.535-.582-.869-.937-.683-.727-1.055-1.114-.721-.757-1.052-1.113-.621-.664-.867-.925a6.823,6.823,0,0,1-.487-.56.851.851,0,0,0-.632-.324,5.319,5.319,0,0,0-.78.03,1.857,1.857,0,0,0-.892.3,1.546,1.546,0,0,0-.525.6,2.446,2.446,0,0,0-.212.817,4.66,4.66,0,0,0,0,.925,3.75,3.75,0,0,0,.819,1.97,9.486,9.486,0,0,0,1.683,1.634,20.889,20.889,0,0,0,2.031,1.361c.7.412,1.326.808,1.87,1.183l.069.645-3.692,6.741a.264.264,0,0,1-.007.078.375.375,0,0,0,0,.078,1.058,1.058,0,0,0,.339.72,2.079,2.079,0,0,0,.666.4,2.632,2.632,0,0,0,.809.162,5.532,5.532,0,0,0,.794-.019,2.066,2.066,0,0,0,1.134-.718,12.27,12.27,0,0,0,1.354-1.731q.707-1.065,1.437-2.443t1.405-2.856c.449-.985.874-1.962,1.265-2.933s.736-1.873,1.031-2.71a21.606,21.606,0,0,0,.664-2.2,4.616,4.616,0,0,0,.184-1.361,2.252,2.252,0,0,0-.208-.733,2.6,2.6,0,0,0-.432-.671" transform="translate(-44.812 149.296)" fill="#f469bb"/>
      <path id="path46" d="M127.779-77.634l.04-.091v-.214l.025-.126-.094-.114-.1-.021-.118-.035-.112-.055-.077-.071-.152-.179-.033-.087-.064-.1-.021-.229.011-.207.019-.106.039-.1.118-.179.081-.07.175-.123.087-.033.1-.046.217-.037.33.018.1.057.1.021.1.057.147.152.126.193.037.105.021.229-.029.322-.041.138.008.1-.019.105-.047.111-.059.579-.144.137-.11.01-.352.07h-.112l-.109.019-.09-.087-.01-.111" transform="translate(-54.187 148.189)" fill="#fff"/>
      <path id="path48" d="M131.082-74l-.071-.193.053-.233.164-.345.112-.159.061-.188.066-.161.1-.167.045-.175.1-.147.059-.2.258-.5.055-.168.332-.673.205-.539.122-.16.106-.252.065-.273.014-.189-.019-.164-.06-.186-.136-.135-.144-.078-.248.024-.259.063-.125.087-.125.143-.036.164-.081.182-.158.111-.889.143-.18-.072-.119-.147.005-.187-.022-.183.136-.564.056-.159.324-.447.145-.137.3-.2.329-.15.43-.1.6-.047.272.009.168.055.531.216.158.1.141.116.443.567.166.531.03.172-.011.366-.1.372-.022.2-.4.833-.058.15-.109.178-.335.654-.07.189.025.145.226.017,1.143-.188.321.019.107.187.071.36,0,.186.049.178.011.175-.041.194-.164.131-1.1.171-.142.043-2.321.382-.2.063L131.082-74" transform="translate(-55.292 148.498)" fill="#fff"/>
      <path id="path50" d="M140.376-78.239l.161-.093.067-.208-.071-.146-.017-.473-.064-.268-.017-.2.034-.183-.017-.2-.07-.034-.561,1.672v.168l.264.02Zm.539,1.884-.086-.34-.115-.129-.169-.064-.773.114-.176.058-.906.156-.195.005-.178.049-.226-.064-.107-.14-.03-.442.053-.289.083-.172.343-1.038.09-.183.354-1.031.082-.173.045-.176.092-.165.023-.191.16-.317.168-.542.147-.333.137-.182.3-.136.6-.131.185-.013.231-.067.311.077.1.169.015.193.059.344.077.173.026.368.05.187.23,1.443.046.16.064.371.1.169.19.079.181-.031.134-.033.191.079.136.247.061.3.036.376-.048.2-.137.126-.157.008-.16.046-.159.1-.045.278.061.25.052.355-.078.2-.183.125-.925.15-.2-.05-.137-.145-.039-.385" transform="translate(-57.878 149.016)" fill="#fff"/>
    </g>
  </g>
</svg>
